<svg xmlns="http://www.w3.org/2000/svg" width="191.932" height="61.002" viewBox="0 0 191.932 61.002">
  <g id="DomeCare_logo" data-name="DomeCare logo" transform="translate(-213.248 -88.908)">
    <g id="Group_10075" data-name="Group 10075" transform="translate(213.248 88.908)">
      <path id="Path_6819" data-name="Path 6819" d="M216.866,135.308a4.194,4.194,0,0,1-2.635-.762,2.261,2.261,0,0,1-.984-1.841V91.511a2.264,2.264,0,0,1,.984-1.841,4.194,4.194,0,0,1,2.635-.762H228.1a19.393,19.393,0,0,1,7.586,1.428,11.489,11.489,0,0,1,5.4,4.633,15.991,15.991,0,0,1,2,8.537v17.2a15.985,15.985,0,0,1-2,8.537,11.5,11.5,0,0,1-5.4,4.633,19.393,19.393,0,0,1-7.586,1.428Zm4.633-7.236h6.665a6.54,6.54,0,0,0,4.889-1.809q1.776-1.808,1.777-5.553v-17.2q0-3.744-1.777-5.553a6.54,6.54,0,0,0-4.889-1.809H221.5Z" transform="translate(-213.248 -88.908)" fill="#3b86ff"/>
      <path id="Path_6820" data-name="Path 6820" d="M260.149,135.689a19.136,19.136,0,0,1-7.554-1.428,11.509,11.509,0,0,1-5.364-4.634,15.982,15.982,0,0,1-2-8.537V103.506a15.991,15.991,0,0,1,2-8.537,11.506,11.506,0,0,1,5.364-4.633,19.157,19.157,0,0,1,7.554-1.428,19.4,19.4,0,0,1,7.585,1.428,11.306,11.306,0,0,1,5.363,4.633,16.2,16.2,0,0,1,1.968,8.537V121.09a16.192,16.192,0,0,1-1.968,8.537,11.308,11.308,0,0,1-5.363,4.634A19.374,19.374,0,0,1,260.149,135.689Zm0-7.235a6.607,6.607,0,0,0,4.886-1.777q1.777-1.779,1.777-5.587V103.506q0-3.806-1.777-5.585a6.607,6.607,0,0,0-4.886-1.777,6.5,6.5,0,0,0-4.857,1.777q-1.745,1.779-1.746,5.585V121.09q0,3.809,1.746,5.587A6.5,6.5,0,0,0,260.149,128.454Z" transform="translate(-208.861 -88.908)" fill="#3b86ff"/>
      <path id="Path_6821" data-name="Path 6821" d="M281.844,135.308a6.1,6.1,0,0,1-2.824-.665,2.139,2.139,0,0,1-1.3-2V93.034a3.656,3.656,0,0,1,1.3-3.206,4.8,4.8,0,0,1,2.824-.92,9.056,9.056,0,0,1,2.571.316,4.643,4.643,0,0,1,1.967,1.27,13.385,13.385,0,0,1,1.937,2.794l7.807,14.218,7.744-14.218a20.456,20.456,0,0,1,2-2.794,4.2,4.2,0,0,1,1.935-1.27,9.133,9.133,0,0,1,2.539-.316,4.763,4.763,0,0,1,2.857.92,3.705,3.705,0,0,1,1.269,3.206v39.607a2.142,2.142,0,0,1-1.3,2,6.33,6.33,0,0,1-5.649,0,2.141,2.141,0,0,1-1.3-2V105.411l-7.362,13.2a3.7,3.7,0,0,1-1.333,1.3,3.165,3.165,0,0,1-1.524.413,3.078,3.078,0,0,1-1.428-.381,3.426,3.426,0,0,1-1.3-1.333l-7.3-13.647v27.674a2.144,2.144,0,0,1-1.269,2A6.064,6.064,0,0,1,281.844,135.308Z" transform="translate(-204.405 -88.908)" fill="#3b86ff"/>
      <path id="Path_6822" data-name="Path 6822" d="M320.352,135.308a4.837,4.837,0,0,1-2.476-.665,2.175,2.175,0,0,1-1.142-2V91.572a2.174,2.174,0,0,1,1.142-2,4.837,4.837,0,0,1,2.476-.665h22.6a2.086,2.086,0,0,1,2,1.142,5.108,5.108,0,0,1,.6,2.413,4.87,4.87,0,0,1-.665,2.6,2.145,2.145,0,0,1-1.937,1.078H324.986v12.694h9.649a2.194,2.194,0,0,1,1.935.985,4.027,4.027,0,0,1,.666,2.316,4.23,4.23,0,0,1-.6,2.128,2.126,2.126,0,0,1-2,1.047h-9.649v12.758H342.95a2.145,2.145,0,0,1,1.937,1.078,4.873,4.873,0,0,1,.665,2.6,5.108,5.108,0,0,1-.6,2.413,2.086,2.086,0,0,1-2,1.142Z" transform="translate(-199.053 -88.908)" fill="#3b86ff"/>
    </g>
    <g id="Group_10081" data-name="Group 10081" transform="translate(244.32 91.249)">
      <g id="Group_10080" data-name="Group 10080">
        <g id="Group_10079" data-name="Group 10079">
          <g id="Group_10077" data-name="Group 10077">
            <path id="Path_6823" data-name="Path 6823" d="M297.625,121.094l.009,0c.033-.063.069-.121.1-.183Z" transform="translate(-232.746 -86.86)" fill="#43425d"/>
            <g id="Group_10076" data-name="Group 10076">
              <path id="Path_6824" data-name="Path 6824" d="M347.073,149.628c.853-.084.9-.869,1.114-4.463.291-4.847.9-14.928,4.222-16.1l.035-.013a1.206,1.206,0,0,1,.127-.036l.01,0,.013,0a1.713,1.713,0,0,1,.2-.035,2.051,2.051,0,0,1,.529,0,.8.8,0,0,0,.092,0h8.558a3.538,3.538,0,0,0,.768,0c1.749-.186,2.764-1.556,3.657-2.761l.01-.014a6.691,6.691,0,0,1,2.731-2.517,3.824,3.824,0,0,1,2.3-.169c1.291.347,2.157,1.516,3,2.651.971,1.3,2.072,2.777,3.882,2.875a3.235,3.235,0,0,0,.9-.061h17.388a2.5,2.5,0,0,0,4.66-.026,2.554,2.554,0,0,0,.164-.9,2.339,2.339,0,0,0-.073-.6,2.5,2.5,0,0,0-4.849-.033H379.14a.941.941,0,0,0-.169.019,1.918,1.918,0,0,1-.562.049c-1.085-.061-1.8-1.022-2.713-2.241l-.013-.019c-.954-1.282-2.035-2.735-3.84-3.219a5.377,5.377,0,0,0-3.258.219,7.954,7.954,0,0,0-3.438,3.059l-.013.016c-.837,1.124-1.5,2.009-2.559,2.124a3.043,3.043,0,0,1-.478,0,.84.84,0,0,0-.089-.007l-8.548,0a2.511,2.511,0,0,0-.337-.016c-.078,0-.154,0-.229,0s-.144.009-.216.016a2.773,2.773,0,0,0-.493.089l-.065.016c-.047.013-.1.026-.144.042a1.486,1.486,0,0,0-.176.069h-.007a1.363,1.363,0,0,0-.185.078c-3.455,1.578-4.419,8.757-4.876,15.7-.235-2.1-.513-4.924-.843-8.6,0-.03,0-.063-.007-.1l-.01-.094a1.7,1.7,0,0,1-.012-.19l0-.039h-.04c-.013,0-.026,0-.039,0l.061-.18,0-.01c0-.072-.014-.147-.02-.222s-.013-.164-.023-.246c-.013-.157-.026-.314-.042-.473-.33-3.791-.666-7.86-.994-11.795l-.012-.159c-.595-7.206-1.212-14.66-1.781-20.264-1.017-10.081-1.444-10.084-2.295-10.091-.784.01-1.1.83-1.493,3.814-.366,2.824-.82,7.947-1.62,18.277-.673,8.663-1.592,20.479-2.415,24.895-.026-.134-.056-.272-.082-.406l-.058-.284a25.2,25.2,0,0,0-2.291-7.224c-.094-.157-.176-.291-.255-.406s-.16-.232-.246-.346a5.614,5.614,0,0,0-.787-.856c-.063-.059-.134-.118-.219-.187l-.019-.012c-.063-.049-.131-.1-.2-.144a3.854,3.854,0,0,0-1.311-.581,3.783,3.783,0,0,0-1.163-.089h-5.225a.391.391,0,0,0-.11.01,1.344,1.344,0,0,1-.216.009,1.036,1.036,0,0,1-.134-.009l-.049-.01a.828.828,0,0,1-.18-.056,2.9,2.9,0,0,1-1.039-1,4.8,4.8,0,0,0-2.065-1.749,3.316,3.316,0,0,0-.471-.136c-.082-.017-.18-.036-.274-.047a2.3,2.3,0,0,0-.291-.028,3.547,3.547,0,0,0-.611.009c-.059,0-.108.01-.154.017l-.033.006a.158.158,0,0,0-.04,0c-.016,0-.032,0-.055.007a3.877,3.877,0,0,0-1.266.389,4.427,4.427,0,0,0-.8.5c-.268.2-.507.408-.743.614l-.1.091c-.3.262-.546.474-.811.67-.29.288-.595.579-.937.9-.183.169-.359.333-.537.49l-.039.033c-.019.019-.042.039-.063.058-.147.134-.29.258-.431.376l-.007.009c-.14.122-.271.233-.4.343-2.18,1.837-3.837,2.726-5.059,2.726-.679,0-.8-.16-.911-.53a4.69,4.69,0,0,1,.379-2.084.274.274,0,0,1,.033-.072c.094-.226.138-.295.239-.331a1.685,1.685,0,0,1,.326-.061,3.782,3.782,0,0,0,.729-.291c.046-.023.091-.049.136-.075a4.348,4.348,0,0,0,.511-.353c.114-.089.239-.2.37-.31l.049-.04a16.316,16.316,0,0,0,3.48-4.64,2.494,2.494,0,0,0,.18-2.167,1.241,1.241,0,0,0-.97-.644c-1.425-.169-3.458,2.026-4.761,3.961-1.709.791-2.262.921-2.559.621-.082-.078-.089-.082-.154-1.722-.078-1.912-.138-2.415-1.066-2.415-.774,0-2.435,1.536-3.654,2.963-.078.108-.167.223-.262.34.467-1.242.539-1.9.268-2.44a1.032,1.032,0,0,0-.935-.514,1.105,1.105,0,0,0-.915.72,12.475,12.475,0,0,0-.379,1.418,2.4,2.4,0,0,0-.154.37l-.033.084c-.078.226-.166.458-.268.7-.081.321-.258.811-.444,1.33l-.209.578c-.683.612-1.288,1.141-2.007,1.732-2.395,1.775-3.778,2.471-4.5,2.258a.442.442,0,0,1-.3-.216c-.357-.569-.144-2.224.712-5.538.31-1.163.6-2.265.6-2.422,0-.421-.108-.689-.326-.8-.252-.127-.631-.019-1.1.321a1.707,1.707,0,0,1-.53.356v-.176a2.683,2.683,0,0,0-.7-1.313,3.091,3.091,0,0,0-2.676-.537,6.258,6.258,0,0,0-1.824,1.134.281.281,0,0,0-.108-.035l-.088-.014c-.131,0-.176,0-1.664,1.346a214.039,214.039,0,0,1-18.97,15.81c-6.783,4.817-11.63,6.65-15.257,5.764a5.332,5.332,0,0,1-3.908-3.692c-1.421-4.189.295-11.813,4.585-20.4,4.383-8.691,10.81-16.211,17.634-20.636a27.4,27.4,0,0,1,7.16-3.434,9.079,9.079,0,0,1,2.581-.295,3.872,3.872,0,0,1,2.016.279,1.661,1.661,0,0,1,1,1.425,5.779,5.779,0,0,1-.735,3.525,6.824,6.824,0,0,0-.706,1.622.844.844,0,0,0,.366.627,1.165,1.165,0,0,0,.886.281c.987-.159,2.107-1.555,2.669-3.316a7.159,7.159,0,0,0,0-4.079,4.424,4.424,0,0,0-2.932-2.774,10.39,10.39,0,0,0-4.421-.007c-7.053,1.516-14.729,7.408-21.614,16.594-5.13,6.964-9.326,16.3-10.444,23.235a24.786,24.786,0,0,0,0,6.713,7.47,7.47,0,0,0,1.725,3.568h-.1l.4.4a6.536,6.536,0,0,0,3.124,1.866,9.15,9.15,0,0,0,2.039.2,13.982,13.982,0,0,0,4.648-.81c5.019-1.7,11.862-6.174,20.345-13.3,2.539-2.1,5.356-4.716,6.382-5.682-1.4,2.9-1.941,5.4-1.366,6.42a1.322,1.322,0,0,0,1.941.7c.745-.3,2.108-1.922,6.418-7.327a22.028,22.028,0,0,1,2.55-2.843,9.335,9.335,0,0,1-.36,1c-.96,3.173-1.209,4.205-1.134,5.437a2.7,2.7,0,0,0,.471,1.765,2.058,2.058,0,0,0,1.608.386,3.05,3.05,0,0,0,1.47-.5l.359-.19.223-.147c1.036-.694,2.1-1.409,3.075-2.2-.811,2.153-.83,2.346-.4,2.784a.769.769,0,0,0,.542.235.8.8,0,0,0,.549-.239,4.593,4.593,0,0,0,.787-1.336,34.342,34.342,0,0,1,4.2-5.843,14.424,14.424,0,0,1,1.788-1.925,7.4,7.4,0,0,1,.056.947,3.939,3.939,0,0,0,.262,2.011,1.293,1.293,0,0,0,.781.7c.532.314,1.111.267,2.179-.176a17.4,17.4,0,0,0-1.036,2.159c-.049.134-.091.246-.127.35-.052.14-.091.255-.117.346a.166.166,0,0,0-.019.052l-.01.026-.01.019v.007c-.045.121-.084.225-.121.326s-.063.209-.089.308l-.012.049a5.36,5.36,0,0,0-.1,1.287,2.824,2.824,0,0,0,.251,1.545,2.243,2.243,0,0,0,2,1.33,4.188,4.188,0,0,0,1.274-.141.468.468,0,0,0,.1-.023,6.705,6.705,0,0,0,1.578-.565l.063,0,.04-.045a28.22,28.22,0,0,0,5.957-4.517c.265-.2.507-.421.7-.595l.01-.006a3.881,3.881,0,0,1,2.078-1.207,3.3,3.3,0,0,1,.34-.03,1.243,1.243,0,0,1,.206,0,1.5,1.5,0,0,1,.213.014,1.779,1.779,0,0,1,.415.108,2.048,2.048,0,0,1,.379.192,2.75,2.75,0,0,1,.252.193c.084.078.166.164.262.265.159.169.31.363.49.6a3.91,3.91,0,0,0,1.9,1.559,1.542,1.542,0,0,0,.19.049c.056.014.114.026.18.036h.013a2.659,2.659,0,0,0,.683.01.038.038,0,0,0,.019,0c.01,0,.019,0,.019,0h5.258a2.413,2.413,0,0,1,.726.045,3.31,3.31,0,0,1,1.96,1.669q.138.217.262.451c.1.186.193.382.272.553a21,21,0,0,1,1.167,3.614c.189.794.349,1.568.5,2.294.02.092.04.18.056.268a19.523,19.523,0,0,0,.487,2.013c.258.762.566,1.062,1.1,1.076,1.483,0,2.029-2.565,3.987-27.787.513-6.621,1.092-14.108,1.6-18.121.748,5.347,1.719,17.092,2.5,26.561.1,1.163.19,2.278.279,3.336l.039.5c.023.268.049.533.068.791.033.379.063.751.092,1.117.134,1.552.268,3.125.412,4.8.012.16.03.321.042.476.01.122.023.242.033.36.014.143.026.284.036.424.006.085.012.171.023.251.494,5.612.827,8.987,1.118,11.3.483,3.879.827,4.624,1.523,4.662M307.8,124.973a12.006,12.006,0,0,1,2.735-2.984h.01V122l0,.014c.213.631-2.056,3.761-3.68,5.079a1.4,1.4,0,0,1-.379.281C306.569,127.122,307.8,124.973,307.8,124.973Zm-2.236.042c-.035.063-.072.121-.1.183l-.009,0Zm-18.9-1.611c-.464.4-1.9,2.15-3.164,3.7-1.451,1.69-2.807,3.177-3.091,3.389a3.351,3.351,0,0,1-.722.591h-.014l-.009.007c-.052.033-.1.069-.131.082a1.621,1.621,0,0,1,.035-.176,5.857,5.857,0,0,0,.223-.71c.049-.186.1-.389.163-.578,1.311-3.7,3.284-6.795,4.8-7.517a2.067,2.067,0,0,1,.839-.2,2.04,2.04,0,0,1,1.069.35,2.4,2.4,0,0,0,.527.375A7.051,7.051,0,0,1,286.667,123.4Z" transform="translate(-240.572 -90.967)" fill="#43425d"/>
              <path id="Path_6825" data-name="Path 6825" d="M297.625,121.094l.009,0c.033-.063.069-.121.1-.183Z" transform="translate(-232.746 -86.86)" fill="#43425d"/>
            </g>
          </g>
          <g id="Group_10078" data-name="Group 10078" transform="translate(64.879 34.048)">
            <path id="Path_6826" data-name="Path 6826" d="M297.739,120.908c-.035.063-.072.121-.1.183l-.009,0Z" transform="translate(-297.625 -120.908)" fill="#43425d"/>
          </g>
        </g>
      </g>
      <path id="Path_6827" data-name="Path 6827" d="M298.152,120.329h.006c.026-.045.056-.089.082-.131Zm-.517.86a.092.092,0,0,0-.012.019l.4-.19C297.884,121.08,297.756,121.136,297.634,121.188Z" transform="translate(-232.746 -86.957)" fill="#43425d"/>
    </g>
  </g>
</svg>
