<svg xmlns="http://www.w3.org/2000/svg" width="17.083" height="20.535" viewBox="0 0 17.083 20.535">
  <g id="ic_arrow" transform="translate(0 20.535) rotate(-90)">
    <path id="Path_796" data-name="Path 796" d="M20.207,9.34l-7.416,7.416a1.127,1.127,0,0,1-1.59,0l-.673-.673a1.116,1.116,0,0,1-.328-.795,1.138,1.138,0,0,1,.328-.8l4.326-4.336H1.109A1.1,1.1,0,0,1,0,9.043V8.09A1.139,1.139,0,0,1,1.109,6.936H14.9l-4.375-4.36a1.113,1.113,0,0,1,0-1.578L11.2.327a1.127,1.127,0,0,1,1.59,0l7.416,7.416a1.133,1.133,0,0,1,0,1.6Z" fill="#fff"/>
  </g>
</svg>
