<svg xmlns="http://www.w3.org/2000/svg" width="17.6" height="15.197" viewBox="0 0 17.6 15.197">
  <g id="ic_show_password" transform="translate(0 -32.053)">
    <g id="Group_8464" data-name="Group 8464" transform="translate(0 32.053)">
      <g id="Group_8463" data-name="Group 8463" transform="translate(0 0)">
        <path id="Path_5964" data-name="Path 5964" d="M231.147,160.065l2.519,2.519.012-.132a2.4,2.4,0,0,0-2.4-2.4Z" transform="translate(-222.481 -155.254)" fill="#a4afb7"/>
        <path id="Path_5965" data-name="Path 5965" d="M152.842,66.053a4,4,0,0,1,4,4,3.937,3.937,0,0,1-.284,1.46l2.339,2.339a9.5,9.5,0,0,0,2.747-3.8,9.465,9.465,0,0,0-8.8-6,9.354,9.354,0,0,0-3.187.56l1.728,1.724A4.019,4.019,0,0,1,152.842,66.053Z" transform="translate(-144.044 -62.854)" fill="#a4afb7"/>
        <path id="Path_5966" data-name="Path 5966" d="M.8,33.073,2.623,34.9l.364.364A9.473,9.473,0,0,0,0,39.251a9.448,9.448,0,0,0,12.3,5.323l.34.34,2.331,2.335L16,46.233,1.82,32.053Zm4.423,4.419,1.236,1.236a2.534,2.534,0,0,0-.06.524,2.4,2.4,0,0,0,2.4,2.4,2.465,2.465,0,0,0,.52-.06l1.236,1.236A3.934,3.934,0,0,1,8.8,43.25a3.973,3.973,0,0,1-3.575-5.759Z" transform="translate(0 -32.053)" fill="#a4afb7"/>
      </g>
    </g>
  </g>
</svg>
