<svg xmlns="http://www.w3.org/2000/svg" width="27.928" height="19.2" viewBox="0 0 27.928 19.2">
  <g id="ic_username" transform="translate(0 -80)">
    <g id="Group_3122" data-name="Group 3122" transform="translate(18.512 83.54)">
      <g id="Group_3121" data-name="Group 3121">
        <path id="Path_1743" data-name="Path 1743" d="M339.392,151.1l9.415,5.952V144.9Z" transform="translate(-339.392 -144.896)" fill="#3b86ff"/>
      </g>
    </g>
    <g id="Group_3124" data-name="Group 3124" transform="translate(0 83.54)">
      <g id="Group_3123" data-name="Group 3123">
        <path id="Path_1744" data-name="Path 1744" d="M0,144.9v12.155L9.415,151.1Z" transform="translate(0 -144.896)" fill="#3b86ff"/>
      </g>
    </g>
    <g id="Group_3126" data-name="Group 3126" transform="translate(0.052 80)">
      <g id="Group_3125" data-name="Group 3125">
        <path id="Path_1745" data-name="Path 1745" d="M27.089,80H2.653A1.724,1.724,0,0,0,.96,81.485l13.911,9.165,13.911-9.165A1.724,1.724,0,0,0,27.089,80Z" transform="translate(-0.96 -80)" fill="#3b86ff"/>
      </g>
    </g>
    <g id="Group_3128" data-name="Group 3128" transform="translate(0.056 90.796)">
      <g id="Group_3127" data-name="Group 3127">
        <path id="Path_1746" data-name="Path 1746" d="M17.882,277.922l-2.47,1.627a.876.876,0,0,1-.96,0l-2.47-1.629L1.024,284.851a1.721,1.721,0,0,0,1.69,1.473H27.15a1.721,1.721,0,0,0,1.69-1.473Z" transform="translate(-1.024 -277.92)" fill="#3b86ff"/>
      </g>
    </g>
  </g>
</svg>
