<?xml version="1.0" standalone="no"?>
<!DOCTYPE svg PUBLIC "-//W3C//DTD SVG 20010904//EN"
 "http://www.w3.org/TR/2001/REC-SVG-20010904/DTD/svg10.dtd">
<svg version="1.0" xmlns="http://www.w3.org/2000/svg"
 width="512.000000pt" height="512.000000pt" viewBox="0 0 512.000000 512.000000"
 preserveAspectRatio="xMidYMid meet">

<g transform="translate(0.000000,512.000000) scale(0.100000,-0.100000)"
fill="#000000" stroke="none">
<path d="M1155 4445 c-152 -34 -252 -90 -365 -204 -96 -97 -148 -179 -188
-296 l-27 -80 0 -505 c0 -502 0 -505 23 -580 77 -243 244 -413 492 -501 63
-23 77 -23 482 -27 l417 -3 3 -502 c4 -495 4 -503 27 -567 88 -249 258 -415
501 -492 l75 -23 680 0 680 0 80 27 c118 40 200 92 295 188 97 97 139 163 184
287 l31 88 0 505 c0 502 0 505 -23 580 -66 209 -197 363 -387 455 -151 73
-169 75 -613 75 l-391 0 -3 503 c-4 495 -4 503 -27 567 -92 260 -279 435 -535
500 -76 19 -109 20 -715 19 -493 0 -650 -4 -696 -14z m1357 -156 c29 -6 91
-29 137 -51 147 -70 263 -213 305 -374 23 -90 24 -930 1 -1019 -53 -204 -216
-367 -420 -420 -90 -23 -1278 -23 -1369 1 -161 42 -304 158 -374 305 -22 46
-45 108 -51 137 -15 72 -15 902 0 974 6 29 29 91 52 137 73 150 219 268 379
307 70 16 1260 20 1340 3z m813 -1884 c24 -23 25 -29 25 -160 l0 -135 275 0
276 0 24 -25 c27 -26 31 -51 14 -88 -17 -37 -50 -47 -162 -47 l-102 0 -23 -67
c-47 -135 -133 -286 -223 -389 l-41 -48 28 -24 c35 -28 164 -105 256 -152 66
-34 88 -60 88 -101 0 -28 -44 -69 -75 -69 -37 0 -215 92 -323 167 -90 61 -95
64 -115 48 -136 -100 -346 -215 -392 -215 -36 0 -75 42 -75 80 0 41 23 61 132
116 51 26 125 69 165 96 l73 49 -55 69 c-72 89 -155 226 -155 257 0 27 50 83
74 83 36 0 65 -26 106 -96 47 -80 128 -185 146 -191 27 -9 163 193 214 316
l29 71 -425 0 c-353 0 -430 2 -453 15 -48 24 -56 81 -16 120 l24 25 276 0 275
0 0 134 c0 120 2 136 21 160 28 35 80 36 114 1z"/>
<path d="M1795 3876 c-16 -7 -40 -24 -52 -38 -30 -32 -383 -904 -383 -945 0
-36 38 -73 76 -73 45 0 72 40 138 205 l64 160 213 0 213 0 63 -160 c66 -165
93 -205 137 -205 39 0 76 37 76 75 0 36 -337 882 -368 924 -45 60 -119 84
-177 57z m128 -344 c37 -92 67 -171 67 -175 0 -4 -63 -7 -141 -7 -130 0 -141
1 -135 18 37 100 132 332 137 332 3 0 35 -75 72 -168z"/>
</g>
</svg>
